<svg id="svg3390" xmlns="http://www.w3.org/2000/svg" xmlns:xlink="http://www.w3.org/1999/xlink" viewBox="0 0 1693.57 384.75"><defs><style>.cls-1{fill:none;}.cls-2{clip-path:url(#clip-path);}.cls-3{fill:url(#linear-gradient);}.cls-4{isolation:isolate;font-size:66.35px;font-family:HelveticaNeue-Bold, Helvetica Neue;font-weight:700;}.cls-5{fill:#231f20;}</style><clipPath id="clip-path"><path class="cls-1" d="M797.36,58.62A13.53,13.53,0,0,0,799.61,66h0l-31.75,59.75a17.37,17.37,0,0,0-2.5-.12h0a23.57,23.57,0,0,0-13.12,4h0L676.86,94v-.37h0A21.64,21.64,0,0,0,655.24,72h0a21.64,21.64,0,0,0-21.63,21.63h0a21.63,21.63,0,0,0,21.63,21.62h0A21.45,21.45,0,0,0,673,106h0l70.87,33.63a23.78,23.78,0,0,0-2.12,9.87h0a22.94,22.94,0,0,0,3.5,12.25h0L705.49,203.5a35.09,35.09,0,0,0-21-7h0a35.23,35.23,0,0,0-31.25,19h0l-57.63-27.37c0-.5.13-1,.13-1.5h0A17.61,17.61,0,0,0,578.11,169h0a17.6,17.6,0,0,0-17.62,17.63h0a17.6,17.6,0,0,0,17.62,17.62h0a17.26,17.26,0,0,0,12.25-5h0l59.38,28.13c-.13,1.37-.25,2.62-.25,4h0a35,35,0,0,0,10.75,25.25h0l-30.5,45.5c-.38,0-.88-.13-1.25-.13h0a13.13,13.13,0,0,0-13.13,13.13h0a13.12,13.12,0,0,0,13.13,13.12h0a13.11,13.11,0,0,0,13.12-13.12h0A12.82,12.82,0,0,0,640,309h0l30.5-45.5a35.62,35.62,0,0,0,14.12,3h0a35.35,35.35,0,0,0,25-10.37h0l37,27.37a19.72,19.72,0,0,0-.5,4.63h0a21.63,21.63,0,0,0,21.63,21.62h0a21.84,21.84,0,0,0,20.75-15.25h0l80.25-23.62A29.14,29.14,0,0,0,894.24,286h0a29.49,29.49,0,0,0,16.62-5.25h0l33.88,31.75a13.65,13.65,0,0,0-.38,3.25h0a15.5,15.5,0,0,0,15.5,15.5h0a15.49,15.49,0,0,0,15.5-15.5h0a15.49,15.49,0,0,0-15.5-15.5h0a16,16,0,0,0-7.75,2.13h0L919.36,271.5a29.58,29.58,0,0,0,4-14.75h0a29.11,29.11,0,0,0-23.87-28.62h0l-.25-90.5a17,17,0,0,0,7.62-4.63h0l65,40.75,56,78.62a10.86,10.86,0,0,0-.75,4h0a11.2,11.2,0,0,0,11.25,11.25h0a11.2,11.2,0,0,0,11.25-11.25h0a11.2,11.2,0,0,0-11.25-11.25H1038L984.11,169.5l49.63-39.5a17,17,0,0,0,9,2.5h0a17.6,17.6,0,0,0,17.62-17.62h0a17.6,17.6,0,0,0-17.62-17.63h0a17.61,17.61,0,0,0-17.63,17.63h0a16.25,16.25,0,0,0,.88,5.5h0L976.86,159.5l-.75-1-2.5,1.75L911.86,121.5v-.75h0a17.6,17.6,0,0,0-17.62-17.62h0a18.6,18.6,0,0,0-9.38,2.62h0L824,59v-.62h0a13.13,13.13,0,0,0-13.13-13.13h0a13.42,13.42,0,0,0-13.5,13.37M788.49,154a20.43,20.43,0,0,0,.5-4.88h0a23.86,23.86,0,0,0-9.5-19h0l31.12-58.5a13.61,13.61,0,0,0,6.63-1.87h0L877,115.62a17.59,17.59,0,0,0-.75,5.13h0a17.55,17.55,0,0,0,10.25,16h0l.25,91.87a26.92,26.92,0,0,0-4.38,1.5h0L788.49,154Zm-5.75,11.25L872,237.87a29.23,29.23,0,0,0-7.13,19h0a10.29,10.29,0,0,0,.13,2h0L788.11,281.5a21.58,21.58,0,0,0-20.62-15h0a21.36,21.36,0,0,0-15,6h0l-36-26.75a34.64,34.64,0,0,0,3.12-14.5h0a35.3,35.3,0,0,0-5.62-19h0l40.25-42.38a24.09,24.09,0,0,0,11.25,2.88h0a23.73,23.73,0,0,0,17.25-7.5"/></clipPath><linearGradient id="linear-gradient" x1="-2789.95" y1="-442.94" x2="-2788.65" y2="-442.94" gradientTransform="matrix(750.89, 0, 0, -750.89, 2095489.32, -332411.63)" gradientUnits="userSpaceOnUse"><stop offset="0" stop-color="#fcb74a"/><stop offset="0" stop-color="#fcb74a"/><stop offset="1" stop-color="#f16750"/></linearGradient></defs><g id="g3398"><g id="g3434"><g class="cls-2"><g id="g3436"><g id="g3442"><g id="g3444"><path id="path3454" class="cls-3" d="M797.36,58.62A13.53,13.53,0,0,0,799.61,66h0l-31.75,59.75a17.37,17.37,0,0,0-2.5-.12h0a23.57,23.57,0,0,0-13.12,4h0L676.86,94v-.37h0A21.64,21.64,0,0,0,655.24,72h0a21.64,21.64,0,0,0-21.63,21.63h0a21.63,21.63,0,0,0,21.63,21.62h0A21.45,21.45,0,0,0,673,106h0l70.87,33.63a23.78,23.78,0,0,0-2.12,9.87h0a22.94,22.94,0,0,0,3.5,12.25h0L705.49,203.5a35.09,35.09,0,0,0-21-7h0a35.23,35.23,0,0,0-31.25,19h0l-57.63-27.37c0-.5.13-1,.13-1.5h0A17.61,17.61,0,0,0,578.11,169h0a17.6,17.6,0,0,0-17.62,17.63h0a17.6,17.6,0,0,0,17.62,17.62h0a17.26,17.26,0,0,0,12.25-5h0l59.38,28.13c-.13,1.37-.25,2.62-.25,4h0a35,35,0,0,0,10.75,25.25h0l-30.5,45.5c-.38,0-.88-.13-1.25-.13h0a13.13,13.13,0,0,0-13.13,13.13h0a13.12,13.12,0,0,0,13.13,13.12h0a13.11,13.11,0,0,0,13.12-13.12h0A12.82,12.82,0,0,0,640,309h0l30.5-45.5a35.62,35.62,0,0,0,14.12,3h0a35.35,35.35,0,0,0,25-10.37h0l37,27.37a19.72,19.72,0,0,0-.5,4.63h0a21.63,21.63,0,0,0,21.63,21.62h0a21.84,21.84,0,0,0,20.75-15.25h0l80.25-23.62A29.14,29.14,0,0,0,894.24,286h0a29.49,29.49,0,0,0,16.62-5.25h0l33.88,31.75a13.65,13.65,0,0,0-.38,3.25h0a15.5,15.5,0,0,0,15.5,15.5h0a15.49,15.49,0,0,0,15.5-15.5h0a15.49,15.49,0,0,0-15.5-15.5h0a16,16,0,0,0-7.75,2.13h0L919.36,271.5a29.58,29.58,0,0,0,4-14.75h0a29.11,29.11,0,0,0-23.87-28.62h0l-.25-90.5a17,17,0,0,0,7.62-4.63h0l65,40.75,56,78.62a10.86,10.86,0,0,0-.75,4h0a11.2,11.2,0,0,0,11.25,11.25h0a11.2,11.2,0,0,0,11.25-11.25h0a11.2,11.2,0,0,0-11.25-11.25H1038L984.11,169.5l49.63-39.5a17,17,0,0,0,9,2.5h0a17.6,17.6,0,0,0,17.62-17.62h0a17.6,17.6,0,0,0-17.62-17.63h0a17.61,17.61,0,0,0-17.63,17.63h0a16.25,16.25,0,0,0,.88,5.5h0L976.86,159.5l-.75-1-2.5,1.75L911.86,121.5v-.75h0a17.6,17.6,0,0,0-17.62-17.62h0a18.6,18.6,0,0,0-9.38,2.62h0L824,59v-.62h0a13.13,13.13,0,0,0-13.13-13.13h0a13.42,13.42,0,0,0-13.5,13.37M788.49,154a20.43,20.43,0,0,0,.5-4.88h0a23.86,23.86,0,0,0-9.5-19h0l31.12-58.5a13.61,13.61,0,0,0,6.63-1.87h0L877,115.62a17.59,17.59,0,0,0-.75,5.13h0a17.55,17.55,0,0,0,10.25,16h0l.25,91.87a26.92,26.92,0,0,0-4.38,1.5h0L788.49,154Zm-5.75,11.25L872,237.87a29.23,29.23,0,0,0-7.13,19h0a10.29,10.29,0,0,0,.13,2h0L788.11,281.5a21.58,21.58,0,0,0-20.62-15h0a21.36,21.36,0,0,0-15,6h0l-36-26.75a34.64,34.64,0,0,0,3.12-14.5h0a35.3,35.3,0,0,0-5.62-19h0l40.25-42.38a24.09,24.09,0,0,0,11.25,2.88h0a23.73,23.73,0,0,0,17.25-7.5"/></g></g></g></g></g></g><text class="cls-4" transform="translate(1251.81 147.99)"><tspan xml:space="preserve">        </tspan></text><text class="cls-4" transform="translate(1251.81 147.99)">LOCAL </text><text class="cls-4" transform="translate(1251.81 227.59)">RESPONSE</text><text class="cls-4" transform="translate(1251.81 307.19)">GUIDE</text><g id="g3456"><g id="g3458"><g id="g3464"><path id="path3466" class="cls-5" d="M141.2,205c0-15.5-7.8-24.7-20.1-24.7S101,189.51,101,205s7.8,25.4,20.1,25.4,20.1-9.8,20.1-25.4m-61.1,0c0-25.3,16.7-39.8,41-39.8s41,14.6,41,39.8-16.7,40.5-41,40.5-41-15.2-41-40.5"/></g><g id="g3468"><path id="path3470" class="cls-5" d="M173.28,234.29l11.7-12c6.4,4.8,14.7,8.1,22.2,8.1,8.5,0,12.7-2.9,12.7-7.5,0-4.9-5.1-6.4-13-9.2l-11.7-4.3c-9.4-3.3-18.2-9.9-18.2-21.1,0-12.8,13.4-23.1,32.2-23.1,10.4,0,21.3,3.5,29,10.1l-10.3,11c-6-3.9-11.6-6.1-18.7-6.1s-11.5,2.5-11.5,6.9c0,4.7,5.9,6.5,13.8,9.2l11.5,4c11,3.8,17.9,10.1,17.9,21.1,0,12.9-12.5,24-34,24-11.9.1-24.4-3.7-33.6-11.1"/></g><g id="g3472"><path id="path3474" class="cls-5" d="M258.07,166.71h22.3l14.7,34.4c1.8,4.6,3.4,9.5,5.2,14.3h.6c1.8-4.8,3.3-9.7,5.1-14.3l14.2-34.4h22.3v77.4h-18.6v-28.4c0-7.5,1.6-18.8,2.6-26.3h-.6l-7.4,18.3-12.8,29.7h-11.3l-12.8-29.7-7.2-18.3h-.6c1,7.5,2.6,18.8,2.6,26.3v28.4h-18.3Z"/></g><g id="g3476"><path id="path3478" class="cls-5" d="M357.75,234.29l11.7-12c6.4,4.8,14.7,8.1,22.2,8.1,8.5,0,12.7-2.9,12.7-7.5,0-4.9-5.1-6.4-13-9.2l-11.7-4.3c-9.4-3.3-18.2-9.9-18.2-21.1,0-12.8,13.4-23.1,32.2-23.1,10.4,0,21.3,3.5,29,10.1l-10.3,11c-5.9-3.9-11.6-6.1-18.7-6.1s-11.5,2.5-11.5,6.9c0,4.7,5.9,6.5,13.8,9.2l11.5,4c11,3.8,17.9,10.1,17.9,21.1,0,12.9-12.5,24-34,24-11.9.1-24.4-3.7-33.6-11.1"/></g></g></g></svg>